<svg width="1440" height="834" fill="none" xmlns="http://www.w3.org/2000/svg"><g clip-path="url(#clip0)"><path fill-rule="evenodd" clip-rule="evenodd" d="M1296.04 72.738c70.7 39.484 138.89 87.793 167.98 165.229 33.05 88.014 54.91 197.362 2.25 288.036-52.22 89.931-166.19 113.606-259.4 154.763-77.15 34.064-156.76 75.675-233.667 62.942-72.896-12.068-106.577-86.422-163.897-128.76-64.922-47.952-174.926-53.362-193.748-135.403-18.743-81.694 69.264-161.292 106.576-244.559 39.523-88.2 33.637-211.15 118.275-257.22 85.781-46.693 167.561 36.026 254.711 54.192 68.54 14.286 141.38 7.533 200.92 40.78z" fill="url(#paint0_linear)" fill-opacity=".7"/><path fill-rule="evenodd" clip-rule="evenodd" d="M994.97-4.293c71.42-48.3 150.02-90.079 237.5-81.182 99.42 10.112 213.72 40.842 274.53 133.259 60.3 91.659 28.07 210.557 22.4 318.05-4.7 88.965-3.41 183.805-52.41 250.547-46.45 63.26-133.21 60.159-200.91 94.462-76.69 38.852-134.63 140.332-221.55 119.568-86.556-20.677-119.878-141.315-181.016-215.738-64.761-78.833-184.309-131.06-187.418-232.751-3.151-103.066 114.636-141.519 173.717-215.394C906.274 108.434 934.83 36.377 994.97-4.292z" fill="url(#paint1_linear)"/><g filter="url(#filter0_f)"><rect x="1297" y="485.646" width="47.585" height="47.585" rx="8" transform="rotate(-63.665 1297 485.646)" fill="#FAB958"/></g><g filter="url(#filter1_d)"><rect x="1229.01" y="236.737" width="92" height="92" rx="8" transform="rotate(-30.523 1229.01 236.737)" fill="#655D8E"/></g><path d="M1286.34 231a16.35 16.35 0 0116.35 16.343 16.38 16.38 0 01-3.93 10.635l.68.679h1.99l12.57 12.572-3.77 3.771-12.57-12.571v-1.987l-.68-.679a16.397 16.397 0 01-10.64 3.923c-4.33 0-8.49-1.722-11.55-4.787a16.325 16.325 0 01-4.79-11.556c0-4.335 1.72-8.491 4.79-11.556a16.328 16.328 0 0111.55-4.787zm0 5.029c-6.28 0-11.31 5.028-11.31 11.314 0 6.286 5.03 11.314 11.31 11.314 6.29 0 11.32-5.028 11.32-11.314 0-6.286-5.03-11.314-11.32-11.314z" fill="#fff"/><rect x="758" y="508.648" width="47.585" height="47.585" rx="8" transform="rotate(-45 758 508.648)" fill="#4BEE6F"/><path d="M787.333 502a2.332 2.332 0 11-4.666 0 2.336 2.336 0 012.333-2.333 2.336 2.336 0 012.333 2.333zm0 7a2.332 2.332 0 11-4.666 0 2.336 2.336 0 012.333-2.333 2.336 2.336 0 012.333 2.333z" fill="#fff"/><path d="M786.296 517.296a1.83 1.83 0 01-2.592 0 1.83 1.83 0 010-2.592 1.832 1.832 0 112.592 2.592z" stroke="#fff"/><path d="M794.333 502a2.332 2.332 0 11-4.666 0 2.336 2.336 0 012.333-2.333 2.336 2.336 0 012.333 2.333zM792 511.333a2.332 2.332 0 100-4.666 2.336 2.336 0 00-2.333 2.333 2.336 2.336 0 002.333 2.333z" fill="#fff"/><path d="M793.833 516a1.83 1.83 0 01-1.833 1.833 1.832 1.832 0 111.833-1.833z" stroke="#fff"/><path d="M799 504.333a2.332 2.332 0 100-4.666 2.336 2.336 0 00-2.333 2.333 2.336 2.336 0 002.333 2.333z" fill="#fff"/><path d="M800.833 509a1.83 1.83 0 01-1.833 1.833 1.832 1.832 0 111.833-1.833zm-.537 8.296a1.83 1.83 0 01-2.592 0 1.83 1.83 0 010-2.592 1.832 1.832 0 112.592 2.592z" stroke="#fff"/><g filter="url(#filter2_d)"><path d="M922.685 211.927c2.327-5.841 2.457-12.281.361-17.903-2.096-5.621-6.247-9.964-11.539-12.073-5.293-2.109-11.293-1.811-16.681.829-5.388 2.639-9.722 7.403-12.05 13.245l19.954 7.951 19.955 7.951z" fill="#FFCE20"/></g><g filter="url(#filter3_f)"><path d="M104.197 184.104l-8.868-2.246-1.071 5.31 13.959 3.203 2.956-9.736h8.127l5.115-15.803-7.094.828-3.311 9.813h-7.212l-2.601 8.631z" fill="#6D678E" fill-opacity=".6"/></g><g filter="url(#filter4_f)"><path d="M488.722 244.5a16.998 16.998 0 00-25.071-21.987 17.001 17.001 0 00-4.373 4.987l4.677 2.7a11.578 11.578 0 012.984-3.402 11.582 11.582 0 018.575-2.298 11.598 11.598 0 018.531 17.3l4.677 2.7z" fill="#F6B5CC"/></g></g><defs><filter id="filter0_f" x="1293" y="439" width="71.756" height="71.756" filterUnits="userSpaceOnUse" color-interpolation-filters="sRGB"><feFlood flood-opacity="0" result="BackgroundImageFix"/><feBlend in="SourceGraphic" in2="BackgroundImageFix" result="shape"/><feGaussianBlur stdDeviation="2" result="effect1_foregroundBlur"/></filter><filter id="filter1_d" x="1174.01" y="190.012" width="185.976" height="205.976" filterUnits="userSpaceOnUse" color-interpolation-filters="sRGB"><feFlood flood-opacity="0" result="BackgroundImageFix"/><feColorMatrix in="SourceAlpha" values="0 0 0 0 0 0 0 0 0 0 0 0 0 0 0 0 0 0 127 0" result="hardAlpha"/><feOffset dx="-25" dy="50"/><feGaussianBlur stdDeviation="15"/><feColorMatrix values="0 0 0 0 0 0 0 0 0 0 0 0 0 0 0 0 0 0 0.25 0"/><feBlend in2="BackgroundImageFix" result="effect1_dropShadow"/><feBlend in="SourceGraphic" in2="effect1_dropShadow" result="shape"/></filter><filter id="filter2_d" x="882.776" y="159" width="78.685" height="67.927" filterUnits="userSpaceOnUse" color-interpolation-filters="sRGB"><feFlood flood-opacity="0" result="BackgroundImageFix"/><feColorMatrix in="SourceAlpha" values="0 0 0 0 0 0 0 0 0 0 0 0 0 0 0 0 0 0 127 0" result="hardAlpha"/><feOffset dx="15"/><feGaussianBlur stdDeviation="7.5"/><feColorMatrix values="0 0 0 0 0 0 0 0 0 0 0 0 0 0 0 0 0 0 0.2 0"/><feBlend in2="BackgroundImageFix" result="effect1_dropShadow"/><feBlend in="SourceGraphic" in2="effect1_dropShadow" result="shape"/></filter><filter id="filter3_f" x="88" y="158" width="46.962" height="41.903" filterUnits="userSpaceOnUse" color-interpolation-filters="sRGB"><feFlood flood-opacity="0" result="BackgroundImageFix"/><feBlend in="SourceGraphic" in2="BackgroundImageFix" result="shape"/><feGaussianBlur stdDeviation="2" result="effect1_foregroundBlur"/></filter><filter id="filter4_f" x="455.278" y="208.778" width="45.945" height="39.722" filterUnits="userSpaceOnUse" color-interpolation-filters="sRGB"><feFlood flood-opacity="0" result="BackgroundImageFix"/><feBlend in="SourceGraphic" in2="BackgroundImageFix" result="shape"/><feGaussianBlur stdDeviation="2" result="effect1_foregroundBlur"/></filter><linearGradient id="paint0_linear" x1="1315.36" y1="69.06" x2="787.636" y2="656.94" gradientUnits="userSpaceOnUse"><stop stop-color="#6D678E"/><stop offset="1" stop-color="#F6B5CC"/></linearGradient><linearGradient id="paint1_linear" x1="1000.76" y1="-24.298" x2="1305.54" y2="751.073" gradientUnits="userSpaceOnUse"><stop stop-color="#6D678E"/><stop offset="1" stop-color="#F6B5CC"/></linearGradient><clipPath id="clip0"><path fill="#fff" d="M0 0h1440v834H0z"/></clipPath></defs></svg>