<svg width="201" height="201" fill="none" xmlns="http://www.w3.org/2000/svg"><path fill-rule="evenodd" clip-rule="evenodd" d="M120.108 168.061c-14.313-.322-24.117-13.548-37.437-18.79-13.13-5.168-30.389-.91-39.65-11.549-9.435-10.839-7.348-27.188-6.558-41.535.788-14.313 2.139-29.253 11.074-40.47 8.974-11.264 23.866-14.336 37.107-20.01 15.934-6.827 31.927-22.954 47.993-16.454 16.112 6.52 16.07 29.403 23.182 45.254 5.774 12.87 12.905 24.643 14.466 38.662 1.822 16.371 5.259 34.932-4.822 47.969-10.116 13.082-28.819 17.296-45.355 16.923z" fill="url(#paint0_linear)"/><path fill-rule="evenodd" clip-rule="evenodd" d="M151.39 148.984c-12.557 6.877-27.661.326-41.816 2.445-13.955 2.09-26.773 14.407-40.114 9.824-13.59-4.67-19.957-19.871-26.446-32.691-6.474-12.79-12.775-26.403-10.644-40.585 2.14-14.242 13.5-24.349 22.13-35.883 10.386-13.88 16.172-35.842 33.336-38.246 17.214-2.41 28.619 17.428 42.703 27.6 11.435 8.258 23.498 14.889 31.859 26.25 9.764 13.266 22.02 27.622 19.809 43.953-2.22 16.387-16.31 29.388-30.817 37.333z" fill="url(#paint1_linear)" fill-opacity=".5"/><circle cx="92.5" cy="89.5" r="18" stroke="#fff" stroke-width="3"/><circle cx="118.5" cy="89.5" r="18" stroke="#fff" stroke-width="3"/><circle cx="105.5" cy="106.5" r="18" stroke="#fff" stroke-width="3"/><defs><linearGradient id="paint0_linear" x1="119.316" y1="171.679" x2="80.984" y2="28.621" gradientUnits="userSpaceOnUse"><stop stop-color="#6D678E"/><stop offset="1" stop-color="#F6B5CC"/></linearGradient><linearGradient id="paint1_linear" x1="152.513" y1="152.513" x2="47.787" y2="47.787" gradientUnits="userSpaceOnUse"><stop stop-color="#6D678E"/><stop offset="1" stop-color="#F6B5CC"/></linearGradient></defs></svg>