<svg width="278" height="278" fill="none" xmlns="http://www.w3.org/2000/svg"><path fill-rule="evenodd" clip-rule="evenodd" d="M184.568 85.32c7.552 12.162 1.836 27.6 4.726 41.619 2.849 13.82 15.847 25.946 12 39.517-3.92 13.825-18.751 21.013-31.197 28.193-12.417 7.163-25.666 14.198-39.943 12.845-14.338-1.358-25.05-12.149-37.038-20.137-14.427-9.612-36.673-14.19-40.01-31.196-3.347-17.057 15.838-29.528 25.225-44.148 7.621-11.869 13.583-24.276 24.47-33.245 12.713-10.474 26.378-23.496 42.805-22.18 16.484 1.32 30.236 14.68 38.962 28.731z" fill="url(#paint0_linear)"/><path fill-rule="evenodd" clip-rule="evenodd" d="M151.494 69.55c12.623 6.757 15.391 22.985 24.903 33.681 9.378 10.544 26.698 14.546 30.151 28.222 3.518 13.933-5.732 27.574-12.921 40.015-7.172 12.412-15.128 25.128-28.169 31.096-13.096 5.992-27.768 2.003-42.144 1.08-17.3-1.111-38.854 6.047-50.248-7.012-11.427-13.098-1.048-33.492-.228-50.846.666-14.089-.375-27.815 4.569-41.026 5.773-15.427 11.096-33.538 25.98-40.611 14.936-7.099 33.525-2.405 48.107 5.401z" fill="url(#paint1_linear)" fill-opacity=".5"/><path fill-rule="evenodd" clip-rule="evenodd" d="M115 151.5a1.5 1.5 0 011.5-1.5h45a1.503 1.503 0 011.5 1.5 1.499 1.499 0 01-1.5 1.5h-45a1.5 1.5 0 01-1.5-1.5zm9.36-42.975a1.51 1.51 0 01.512-.388c.197-.09.411-.137.628-.137h27c.217 0 .431.047.628.137.196.091.371.223.512.388l8.277 9.657A4.498 4.498 0 01163 121.11v.39h-3v-.39a1.5 1.5 0 00-.36-.975L151.81 111h-25.62l-7.83 9.135a1.5 1.5 0 00-.36.975v.39h-3v-.39c0-1.074.384-2.113 1.083-2.928l8.28-9.66-.003.003z" fill="#fff"/><path d="M122.125 125.625a4.125 4.125 0 004.125-4.125h3a4.128 4.128 0 004.125 4.125 4.128 4.128 0 004.125-4.125h3a4.128 4.128 0 004.125 4.125 4.128 4.128 0 004.125-4.125h3a4.128 4.128 0 004.125 4.125A4.128 4.128 0 00160 121.5h3a7.124 7.124 0 01-12.75 4.374 7.13 7.13 0 01-2.493 2.028 7.127 7.127 0 01-3.132.723 7.114 7.114 0 01-5.625-2.751 7.112 7.112 0 01-5.625 2.751 7.114 7.114 0 01-5.625-2.751 7.13 7.13 0 01-7.937 2.366A7.122 7.122 0 01115 121.5h3a4.125 4.125 0 004.125 4.125z" fill="#fff"/><path d="M129.25 121.5a1.499 1.499 0 01-2.561 1.06 1.499 1.499 0 011.061-2.56 1.503 1.503 0 011.5 1.5zm11.25 0a1.499 1.499 0 01-2.561 1.06A1.499 1.499 0 01139 120a1.503 1.503 0 011.5 1.5zm11.25 0a1.499 1.499 0 01-2.561 1.06 1.499 1.499 0 011.061-2.56 1.503 1.503 0 011.5 1.5z" fill="#fff"/><path fill-rule="evenodd" clip-rule="evenodd" d="M121 128.538V126h-3v1.311a7.119 7.119 0 003 1.227zm-3 2.211c.933.42 1.941.696 3 .813V150h-3v-19.251zm39 .813a10.082 10.082 0 003-.81V150h-3v-18.438zm3-4.251a7.119 7.119 0 01-3 1.227V126h3v1.311zm-36 6.189a1.5 1.5 0 011.5-1.5h12a1.503 1.503 0 011.5 1.5V150h-3v-15h-9v15h-3v-16.5zm18 0a1.5 1.5 0 011.5-1.5h9a1.503 1.503 0 011.5 1.5v12a1.499 1.499 0 01-1.5 1.5h-9a1.5 1.5 0 01-1.5-1.5v-12zm3 1.5v9h6v-9h-6z" fill="#fff"/><path d="M117.571 159l.802 2.418h2.595l-2.099 1.495.802 2.419-2.1-1.495-2.099 1.495.802-2.419-2.099-1.495h2.595l.801-2.418zm10.715 0l.802 2.418h2.594l-2.099 1.495.802 2.419-2.099-1.495-2.099 1.495.801-2.419-2.099-1.495h2.595l.802-2.418zM139 159l.802 2.418h2.595l-2.099 1.495.801 2.419-2.099-1.495-2.099 1.495.802-2.419-2.099-1.495h2.594L139 159zm10.714 0l.802 2.418h2.595l-2.099 1.495.802 2.419-2.1-1.495-2.099 1.495.802-2.419-2.099-1.495h2.595l.801-2.418zm10.714 0l.802 2.418h2.595l-2.099 1.495.802 2.419-2.1-1.495-2.099 1.495.802-2.419-2.099-1.495h2.595l.801-2.418z" fill="#fff"/><defs><linearGradient id="paint0_linear" x1="188.03" y1="84.005" x2="89.182" y2="194.295" gradientUnits="userSpaceOnUse"><stop stop-color="#6D678E"/><stop offset="1" stop-color="#F6B5CC"/></linearGradient><linearGradient id="paint1_linear" x1="153.835" y1="66.681" x2="123.376" y2="211.619" gradientUnits="userSpaceOnUse"><stop stop-color="#6D678E"/><stop offset="1" stop-color="#F6B5CC"/></linearGradient></defs></svg>