<svg width="246" height="246" fill="none" xmlns="http://www.w3.org/2000/svg"><path fill-rule="evenodd" clip-rule="evenodd" d="M121.482 51.895c13.742 4.017 19.789 19.329 31.298 27.84 11.345 8.39 29.118 8.744 35.31 21.418 6.308 12.911.061 28.163-4.415 41.817-4.466 13.621-9.637 27.702-21.172 36.224-11.583 8.558-26.762 7.671-41.021 9.724-17.159 2.471-36.78 13.909-50.616 3.472-13.876-10.468-7.913-32.56-10.68-49.711-2.246-13.926-6.087-27.144-3.966-41.089 2.476-16.285 3.961-35.103 17.073-45.087 13.156-10.018 32.313-9.248 48.189-4.608z" fill="url(#paint0_linear)"/><path fill-rule="evenodd" clip-rule="evenodd" d="M86.329 62.226c13.909-3.393 26.801 6.845 41.024 8.46 14.02 1.594 29.589-6.985 41.288.894 11.919 8.028 14.135 24.36 17.085 38.423 2.943 14.029 5.505 28.809-.223 41.956-5.753 13.203-19.342 20.025-30.663 28.932-13.625 10.719-24.898 30.436-42.099 28.315-17.251-2.127-23.133-24.241-34.105-37.711-8.908-10.937-18.844-20.464-23.98-33.601-5.997-15.341-14.12-32.381-7.757-47.583 6.385-15.254 23.36-24.165 39.43-28.085z" fill="url(#paint1_linear)" fill-opacity=".5"/><path d="M125.626 106.001c-1.11.008-2.212.062-3.376.373-1.268.343-2.471.89-3.562 1.62-1.532-.897-3.016-1.634-4.438-1.808-1.766-.217-3.406-.099-5.312-.06-2.26.046-3.734 1.196-6.126 2.117-2.39.917-5.468 1.806-9.812 1.806h-2v19.186l1.126.56 3.686 1.808 13.126 14.575.062.062c1.5 1.479 3.524 1.846 5.312 1.744 1.79-.099 3.47-.622 4.812-1.431 2.954-1.776 11-7.351 11-7.351l.188-.126.126-.124c.952-.942 1.43-2.093 1.75-3.3l7.686-3.864 5.75-1.929 1.376-.439v-19.371h-2a25.759 25.759 0 01-9.812-1.869c-2.392-.931-3.844-2.069-6.128-2.117-1.22-.024-2.328-.07-3.436-.062h.002zm.06 3.987c.9-.008 1.94.039 3.252.061.21.008 2.132.826 4.812 1.87 2.266.887 5.414 1.674 9.25 1.93v12.707l-4.626 1.559h-.124l-.126.06-6.06 3.053a7.066 7.066 0 00-1.5-2.491l-.126-.188-8.5-10.401-1.25-1.559-1.564 1.246-5.374 4.362c-1.804 1.245-3.266.887-4.75.187-.43-.203-.406-.265-.75-.498l9.126-7.539.124-.124c2.71-2.679 4.376-3.606 5.812-3.986.72-.196 1.478-.241 2.376-.249h-.002zm-13.934.061a14.675 14.675 0 012 .062c.524.062 1.118.506 1.626.686-.204.187-.352.295-.564.498l-.124.126-10.938 9.029-1.688 1.372 1.5 1.557s1.446 1.558 3.688 2.617c2.242 1.058 5.704 1.658 8.812-.498l.126-.126 3.874-3.175 7.376 9.031.062.126.062.06c1.32 1.301 1.29 3.349 0 4.674-.016.014.016.046 0 .06-.016.01-.28.165-.312.189l-2.626-3.552-3.25 2.368 2.564 3.425c-1.04.701-1.508 1.068-2.626 1.808l-2.686-3.614-3.252 2.368 2.564 3.424c-.228.14-.696.453-.876.562-.632.381-1.852.81-2.938.872-1.022.055-1.804-.18-2.186-.499l-.062-.062-13.376-14.762-.25-.313L95 126.743v-12.894c3.82-.25 6.992-1.005 9.25-1.868 2.672-1.021 4.58-1.862 4.812-1.87l2.688-.062h.002z" fill="#fff"/><defs><linearGradient id="paint0_linear" x1="123.183" y1="48.606" x2="123.183" y2="196.71" gradientUnits="userSpaceOnUse"><stop stop-color="#6D678E"/><stop offset="1" stop-color="#F6B5CC"/></linearGradient><linearGradient id="paint1_linear" x1="86.157" y1="58.527" x2="160.209" y2="186.789" gradientUnits="userSpaceOnUse"><stop stop-color="#6D678E"/><stop offset="1" stop-color="#F6B5CC"/></linearGradient></defs></svg>